<mxfile host="app.diagrams.net" modified="2023-11-06T14:28:44.687Z" agent="Mozilla/5.0 (Windows NT 10.0; Win64; x64) AppleWebKit/537.36 (KHTML, like Gecko) Chrome/118.0.0.0 Safari/537.36" version="22.0.8" etag="YI28fpoCc1rUALM9DVN_" type="github">
  <diagram name="Страница — 1" id="Z6LsSMTbvPcriRMS8hZ6">
    <mxGraphModel>
      <root>
        <mxCell id="0" />
        <mxCell id="1" parent="0" />
      </root>
    </mxGraphModel>
  </diagram>
</mxfile>
